<svg width="20" height="20" viewBox="0 0 20 20" fill="none" xmlns="http://www.w3.org/2000/svg">
<path d="M10 16.3787L9.36833 15.8078C8.00833 14.5656 6.88333 13.502 5.99333 12.617C5.10333 11.7325 4.40083 10.9525 3.88583 10.277C3.37139 9.60088 3.01167 8.98949 2.80667 8.44282C2.60222 7.8956 2.5 7.34532 2.5 6.79199C2.5 5.73199 2.86 4.84199 3.58 4.12199C4.3 3.40199 5.19 3.04199 6.25 3.04199C6.98333 3.04199 7.67083 3.22949 8.3125 3.60449C8.95417 3.97949 9.51667 4.52477 10 5.24033C10.4833 4.52477 11.0458 3.97949 11.6875 3.60449C12.3292 3.22949 13.0167 3.04199 13.75 3.04199C14.81 3.04199 15.7 3.40199 16.42 4.12199C17.14 4.84199 17.5 5.73199 17.5 6.79199C17.5 7.34532 17.3978 7.89533 17.1933 8.44199C16.9883 8.98921 16.6286 9.60088 16.1142 10.277C15.5992 10.9525 14.8992 11.7325 14.0142 12.617C13.1297 13.502 12.0019 14.5659 10.6308 15.8087L10 16.3787Z" fill="#FFC700"/>
</svg>
