<svg width="74" height="74" viewBox="0 0 74 74" fill="none" xmlns="http://www.w3.org/2000/svg">
<g clip-path="url(#clip0_105_2)">
<path d="M54.2667 17.2658H59.2M22.2 2.46582H51.8C57.0336 2.46582 62.0529 4.54486 65.7536 8.24558C69.4543 11.9463 71.5333 16.9655 71.5333 22.1992V51.7992C71.5333 57.0328 69.4543 62.052 65.7536 65.7527C62.0529 69.4535 57.0336 71.5325 51.8 71.5325H22.2C16.9664 71.5325 11.9472 69.4535 8.24644 65.7527C4.54572 62.052 2.46667 57.0328 2.46667 51.7992V22.1992C2.46667 16.9655 4.54572 11.9463 8.24644 8.24558C11.9472 4.54486 16.9664 2.46582 22.2 2.46582ZM37 51.7992C33.0748 51.7992 29.3104 50.2399 26.5348 47.4643C23.7593 44.6888 22.2 40.9244 22.2 36.9992C22.2 33.074 23.7593 29.3095 26.5348 26.534C29.3104 23.7584 33.0748 22.1992 37 22.1992C40.9252 22.1992 44.6897 23.7584 47.4652 26.534C50.2407 29.3095 51.8 33.074 51.8 36.9992C51.8 40.9244 50.2407 44.6888 47.4652 47.4643C44.6897 50.2399 40.9252 51.7992 37 51.7992Z" stroke="white" stroke-width="4.93333"/>
</g>
<defs>
<clipPath id="clip0_105_2">
<rect width="74" height="74" fill="white"/>
</clipPath>
</defs>
</svg>
