<svg width="80" height="80" viewBox="0 0 80 80" fill="none" xmlns="http://www.w3.org/2000/svg">
<path d="M67.5 7.5H12.5C11.1739 7.5 9.90215 8.02678 8.96447 8.96447C8.02678 9.90215 7.5 11.1739 7.5 12.5V67.5C7.5 68.8261 8.02678 70.0979 8.96447 71.0355C9.90215 71.9732 11.1739 72.5 12.5 72.5H67.5C68.8261 72.5 70.0979 71.9732 71.0355 71.0355C71.9732 70.0979 72.5 68.8261 72.5 67.5V12.5C72.5 11.1739 71.9732 9.90215 71.0355 8.96447C70.0979 8.02678 68.8261 7.5 67.5 7.5ZM67.5 67.5H12.5V12.5H67.5V67.5ZM30 35V55C30 55.663 29.7366 56.2989 29.2678 56.7678C28.7989 57.2366 28.163 57.5 27.5 57.5C26.837 57.5 26.2011 57.2366 25.7322 56.7678C25.2634 56.2989 25 55.663 25 55V35C25 34.337 25.2634 33.7011 25.7322 33.2322C26.2011 32.7634 26.837 32.5 27.5 32.5C28.163 32.5 28.7989 32.7634 29.2678 33.2322C29.7366 33.7011 30 34.337 30 35ZM57.5 43.75V55C57.5 55.663 57.2366 56.2989 56.7678 56.7678C56.2989 57.2366 55.663 57.5 55 57.5C54.337 57.5 53.7011 57.2366 53.2322 56.7678C52.7634 56.2989 52.5 55.663 52.5 55V43.75C52.5 42.0924 51.8415 40.5027 50.6694 39.3306C49.4973 38.1585 47.9076 37.5 46.25 37.5C44.5924 37.5 43.0027 38.1585 41.8306 39.3306C40.6585 40.5027 40 42.0924 40 43.75V55C40 55.663 39.7366 56.2989 39.2678 56.7678C38.7989 57.2366 38.163 57.5 37.5 57.5C36.837 57.5 36.2011 57.2366 35.7322 56.7678C35.2634 56.2989 35 55.663 35 55V35C35.0031 34.3876 35.2309 33.7977 35.64 33.3421C36.0492 32.8865 36.6114 32.597 37.2199 32.5284C37.8284 32.4598 38.441 32.6169 38.9413 32.97C39.4417 33.323 39.795 33.8475 39.9344 34.4438C41.6256 33.2965 43.5974 32.6316 45.638 32.5204C47.6786 32.4092 49.7109 32.856 51.5167 33.8127C53.3226 34.7694 54.8337 36.2 55.8879 37.9508C56.942 39.7015 57.4993 41.7064 57.5 43.75ZM31.25 26.25C31.25 26.9917 31.0301 27.7167 30.618 28.3334C30.206 28.9501 29.6203 29.4307 28.9351 29.7145C28.2498 29.9984 27.4958 30.0726 26.7684 29.9279C26.041 29.7833 25.3728 29.4261 24.8483 28.9017C24.3239 28.3772 23.9667 27.709 23.8221 26.9816C23.6774 26.2542 23.7516 25.5002 24.0355 24.8149C24.3193 24.1297 24.7999 23.544 25.4166 23.132C26.0333 22.7199 26.7583 22.5 27.5 22.5C28.4946 22.5 29.4484 22.8951 30.1517 23.5983C30.8549 24.3016 31.25 25.2554 31.25 26.25Z" fill="white"/>
</svg>
