<svg width="80" height="80" viewBox="0 0 80 80" fill="none" xmlns="http://www.w3.org/2000/svg">
<path d="M40 7.5C33.5721 7.5 27.2886 9.40609 21.944 12.9772C16.5994 16.5484 12.4338 21.6242 9.97393 27.5628C7.51408 33.5014 6.87047 40.0361 8.12449 46.3404C9.37851 52.6448 12.4738 58.4358 17.019 62.981C21.5643 67.5262 27.3552 70.6215 33.6596 71.8755C39.964 73.1295 46.4986 72.4859 52.4372 70.0261C58.3758 67.5662 63.4516 63.4006 67.0228 58.056C70.5939 52.7114 72.5 46.4279 72.5 40C72.4909 31.3833 69.0639 23.122 62.9709 17.0291C56.878 10.9361 48.6168 7.5091 40 7.5ZM42.5 67.3844V47.5H50C50.6631 47.5 51.2989 47.2366 51.7678 46.7678C52.2366 46.2989 52.5 45.663 52.5 45C52.5 44.337 52.2366 43.7011 51.7678 43.2322C51.2989 42.7634 50.6631 42.5 50 42.5H42.5V35C42.5 33.6739 43.0268 32.4021 43.9645 31.4645C44.9022 30.5268 46.1739 30 47.5 30H52.5C53.1631 30 53.7989 29.7366 54.2678 29.2678C54.7366 28.7989 55 28.163 55 27.5C55 26.837 54.7366 26.2011 54.2678 25.7322C53.7989 25.2634 53.1631 25 52.5 25H47.5C44.8479 25 42.3043 26.0536 40.4289 27.9289C38.5536 29.8043 37.5 32.3478 37.5 35V42.5H30C29.337 42.5 28.7011 42.7634 28.2322 43.2322C27.7634 43.7011 27.5 44.337 27.5 45C27.5 45.663 27.7634 46.2989 28.2322 46.7678C28.7011 47.2366 29.337 47.5 30 47.5H37.5V67.3844C30.4525 66.741 23.9243 63.4056 19.2733 58.0718C14.6222 52.7379 12.2065 45.8164 12.5285 38.747C12.8505 31.6775 15.8855 25.0042 21.0021 20.1153C26.1188 15.2264 32.9232 12.4982 40 12.4982C47.0768 12.4982 53.8813 15.2264 58.9979 20.1153C64.1146 25.0042 67.1495 31.6775 67.4715 38.747C67.7935 45.8164 65.3778 52.7379 60.7268 58.0718C56.0758 63.4056 49.5475 66.741 42.5 67.3844Z" fill="white"/>
</svg>
